<svg width="29" height="27" viewBox="0 0 29 27" fill="none" xmlns="http://www.w3.org/2000/svg">
<path d="M13.5429 23.9029L14.3333 24.5949L15.1238 23.9029L16.7654 22.4657L16.7671 22.4642L16.7984 22.4369C19.6784 19.9254 22.1676 17.7547 23.9248 15.6872C25.7002 13.5983 26.8667 11.4591 26.8667 8.99455C26.8667 4.91881 23.5407 1.8 19.4333 1.8C17.5494 1.8 15.732 2.48152 14.3333 3.61548C12.9347 2.48152 11.1172 1.8 9.23333 1.8C5.12599 1.8 1.8 4.91881 1.8 8.99455C1.8 11.4591 2.96644 13.5983 4.74189 15.6872C6.4991 17.7547 8.98824 19.9254 11.8683 22.4369L11.8996 22.4642L11.9013 22.4657L13.5429 23.9029Z" stroke="white" stroke-width="2.4"/>
</svg>
