<svg width="94" height="44" viewBox="0 0 94 44" fill="none" xmlns="http://www.w3.org/2000/svg">
<rect x="1.5" y="10.5" width="82" height="32" stroke="white" stroke-width="3"/>
<path d="M20.4254 23V14.9H23.7554V15.92H21.9054V18.28H23.4154V19.31H21.9054V23H20.4254ZM25.9119 23L27.5319 14.9H29.1119L30.7319 23H29.3619L29.0419 21.13H27.6319L27.3019 23H25.9119ZM27.7819 20.19H28.8819L28.3319 16.79L27.7819 20.19ZM35.5475 23.11C35.0608 23.11 34.6541 23.0167 34.3275 22.83C34.0008 22.6367 33.7541 22.3567 33.5875 21.99C33.4208 21.6233 33.3275 21.1733 33.3075 20.64L34.5775 20.39C34.5908 20.7033 34.6275 20.98 34.6875 21.22C34.7541 21.46 34.8508 21.6467 34.9775 21.78C35.1108 21.9067 35.2841 21.97 35.4975 21.97C35.7375 21.97 35.9075 21.9 36.0075 21.76C36.1075 21.6133 36.1575 21.43 36.1575 21.21C36.1575 20.8567 36.0775 20.5667 35.9175 20.34C35.7575 20.1133 35.5441 19.8867 35.2775 19.66L34.2575 18.76C33.9708 18.5133 33.7408 18.24 33.5675 17.94C33.4008 17.6333 33.3175 17.2567 33.3175 16.81C33.3175 16.17 33.5041 15.6767 33.8775 15.33C34.2508 14.9833 34.7608 14.81 35.4075 14.81C35.7875 14.81 36.1041 14.87 36.3575 14.99C36.6108 15.1033 36.8108 15.2633 36.9575 15.47C37.1108 15.6767 37.2241 15.9133 37.2975 16.18C37.3708 16.44 37.4175 16.7167 37.4375 17.01L36.1775 17.23C36.1641 16.9767 36.1341 16.75 36.0875 16.55C36.0475 16.35 35.9708 16.1933 35.8575 16.08C35.7508 15.9667 35.5908 15.91 35.3775 15.91C35.1575 15.91 34.9875 15.9833 34.8675 16.13C34.7541 16.27 34.6975 16.4467 34.6975 16.66C34.6975 16.9333 34.7541 17.16 34.8675 17.34C34.9808 17.5133 35.1441 17.6933 35.3575 17.88L36.3675 18.77C36.7008 19.05 36.9841 19.38 37.2175 19.76C37.4575 20.1333 37.5775 20.5867 37.5775 21.12C37.5775 21.5067 37.4908 21.85 37.3175 22.15C37.1508 22.45 36.9141 22.6867 36.6075 22.86C36.3075 23.0267 35.9541 23.11 35.5475 23.11ZM40.4689 23V14.9H41.9389V18.29H43.5889V14.9H45.0689V23H43.5889V19.34H41.9389V23H40.4689ZM48.3482 23V14.9H49.8082V23H48.3482ZM55.2621 23.11C54.6888 23.11 54.2321 23.0033 53.8921 22.79C53.5521 22.5767 53.3088 22.27 53.1621 21.87C53.0155 21.47 52.9421 20.9967 52.9421 20.45V17.42C52.9421 16.8733 53.0155 16.4067 53.1621 16.02C53.3088 15.6267 53.5521 15.3267 53.8921 15.12C54.2321 14.9133 54.6888 14.81 55.2621 14.81C55.8488 14.81 56.3088 14.9133 56.6421 15.12C56.9821 15.3267 57.2255 15.6267 57.3721 16.02C57.5255 16.4067 57.6021 16.8733 57.6021 17.42V20.46C57.6021 21 57.5255 21.47 57.3721 21.87C57.2255 22.2633 56.9821 22.57 56.6421 22.79C56.3088 23.0033 55.8488 23.11 55.2621 23.11ZM55.2621 22.02C55.5088 22.02 55.6888 21.9667 55.8021 21.86C55.9221 21.7533 56.0021 21.6067 56.0421 21.42C56.0821 21.2333 56.1021 21.03 56.1021 20.81V17.08C56.1021 16.8533 56.0821 16.65 56.0421 16.47C56.0021 16.29 55.9221 16.15 55.8021 16.05C55.6888 15.9433 55.5088 15.89 55.2621 15.89C55.0288 15.89 54.8521 15.9433 54.7321 16.05C54.6121 16.15 54.5321 16.29 54.4921 16.47C54.4521 16.65 54.4321 16.8533 54.4321 17.08V20.81C54.4321 21.03 54.4488 21.2333 54.4821 21.42C54.5221 21.6067 54.6021 21.7533 54.7221 21.86C54.8421 21.9667 55.0221 22.02 55.2621 22.02ZM62.6369 23.11C62.1236 23.11 61.7102 23.0067 61.3969 22.8C61.0836 22.5933 60.8602 22.3067 60.7269 21.94C60.5936 21.5667 60.5269 21.1367 60.5269 20.65C60.5269 20.4167 60.5469 20.2033 60.5869 20.01C60.6336 19.81 60.6969 19.63 60.7769 19.47C60.8636 19.31 60.9669 19.17 61.0869 19.05C61.2069 18.9233 61.3436 18.82 61.4969 18.74C61.2569 18.5733 61.0536 18.3467 60.8869 18.06C60.7269 17.7667 60.6436 17.3967 60.6369 16.95C60.6369 16.51 60.7069 16.13 60.8469 15.81C60.9936 15.4833 61.2169 15.2367 61.5169 15.07C61.8169 14.8967 62.1902 14.81 62.6369 14.81C63.0902 14.81 63.4636 14.8967 63.7569 15.07C64.0502 15.2433 64.2669 15.49 64.4069 15.81C64.5536 16.13 64.6236 16.51 64.6169 16.95C64.6102 17.4033 64.5269 17.7733 64.3669 18.06C64.2136 18.3467 64.0169 18.5733 63.7769 18.74C63.9302 18.82 64.0669 18.9233 64.1869 19.05C64.3069 19.17 64.4069 19.31 64.4869 19.47C64.5736 19.63 64.6369 19.81 64.6769 20.01C64.7236 20.2033 64.7469 20.4167 64.7469 20.65C64.7536 21.1367 64.6869 21.5667 64.5469 21.94C64.4136 22.3067 64.1902 22.5933 63.8769 22.8C63.5702 23.0067 63.1569 23.11 62.6369 23.11ZM62.6369 22.06C62.8569 22.06 63.0202 21.9933 63.1269 21.86C63.2402 21.7267 63.3136 21.56 63.3469 21.36C63.3802 21.1533 63.3969 20.9433 63.3969 20.73C63.4036 20.5033 63.3869 20.2867 63.3469 20.08C63.3069 19.8667 63.2302 19.6933 63.1169 19.56C63.0102 19.4267 62.8502 19.36 62.6369 19.36C62.4302 19.36 62.2702 19.4267 62.1569 19.56C62.0502 19.6933 61.9736 19.8633 61.9269 20.07C61.8869 20.2767 61.8669 20.4967 61.8669 20.73C61.8669 20.9433 61.8836 21.1533 61.9169 21.36C61.9569 21.5667 62.0336 21.7367 62.1469 21.87C62.2602 21.9967 62.4236 22.06 62.6369 22.06ZM62.6369 18.19C62.8036 18.1833 62.9336 18.1267 63.0269 18.02C63.1269 17.9067 63.1969 17.7533 63.2369 17.56C63.2769 17.3667 63.2969 17.1467 63.2969 16.9C63.2969 16.5933 63.2469 16.3433 63.1469 16.15C63.0469 15.9567 62.8769 15.86 62.6369 15.86C62.4036 15.86 62.2302 15.9567 62.1169 16.15C62.0102 16.3433 61.9569 16.59 61.9569 16.89C61.9569 17.1367 61.9769 17.36 62.0169 17.56C62.0636 17.7533 62.1369 17.9067 62.2369 18.02C62.3369 18.1267 62.4702 18.1833 62.6369 18.19ZM23.8229 38V29.9H27.1529V30.92H25.3029V33.28H26.8129V34.31H25.3029V38H23.8229ZM32.1738 38.11C31.5738 38.11 31.1071 38 30.7738 37.78C30.4404 37.56 30.2104 37.2467 30.0838 36.84C29.9571 36.4333 29.8938 35.9467 29.8938 35.38V29.9H31.3338V35.55C31.3338 35.8033 31.3504 36.0433 31.3838 36.27C31.4171 36.49 31.4938 36.67 31.6138 36.81C31.7404 36.9433 31.9271 37.01 32.1738 37.01C32.4338 37.01 32.6204 36.9433 32.7338 36.81C32.8538 36.67 32.9304 36.49 32.9638 36.27C33.0038 36.0433 33.0238 35.8033 33.0238 35.55V29.9H34.4538V35.38C34.4538 35.9467 34.3904 36.4333 34.2638 36.84C34.1371 37.2467 33.9071 37.56 33.5738 37.78C33.2471 38 32.7804 38.11 32.1738 38.11ZM39.6578 38.11C39.1711 38.11 38.7645 38.0167 38.4378 37.83C38.1111 37.6367 37.8645 37.3567 37.6978 36.99C37.5311 36.6233 37.4378 36.1733 37.4178 35.64L38.6878 35.39C38.7011 35.7033 38.7378 35.98 38.7978 36.22C38.8645 36.46 38.9611 36.6467 39.0878 36.78C39.2211 36.9067 39.3945 36.97 39.6078 36.97C39.8478 36.97 40.0178 36.9 40.1178 36.76C40.2178 36.6133 40.2678 36.43 40.2678 36.21C40.2678 35.8567 40.1878 35.5667 40.0278 35.34C39.8678 35.1133 39.6545 34.8867 39.3878 34.66L38.3678 33.76C38.0811 33.5133 37.8511 33.24 37.6778 32.94C37.5111 32.6333 37.4278 32.2567 37.4278 31.81C37.4278 31.17 37.6145 30.6767 37.9878 30.33C38.3611 29.9833 38.8711 29.81 39.5178 29.81C39.8978 29.81 40.2145 29.87 40.4678 29.99C40.7211 30.1033 40.9211 30.2633 41.0678 30.47C41.2211 30.6767 41.3345 30.9133 41.4078 31.18C41.4811 31.44 41.5278 31.7167 41.5478 32.01L40.2878 32.23C40.2745 31.9767 40.2445 31.75 40.1978 31.55C40.1578 31.35 40.0811 31.1933 39.9678 31.08C39.8611 30.9667 39.7011 30.91 39.4878 30.91C39.2678 30.91 39.0978 30.9833 38.9778 31.13C38.8645 31.27 38.8078 31.4467 38.8078 31.66C38.8078 31.9333 38.8645 32.16 38.9778 32.34C39.0911 32.5133 39.2545 32.6933 39.4678 32.88L40.4778 33.77C40.8111 34.05 41.0945 34.38 41.3278 34.76C41.5678 35.1333 41.6878 35.5867 41.6878 36.12C41.6878 36.5067 41.6011 36.85 41.4278 37.15C41.2611 37.45 41.0245 37.6867 40.7178 37.86C40.4178 38.0267 40.0645 38.11 39.6578 38.11ZM44.5992 38V29.9H46.0592V38H44.5992ZM51.5131 38.11C50.9398 38.11 50.4831 38.0033 50.1431 37.79C49.8031 37.5767 49.5598 37.27 49.4131 36.87C49.2665 36.47 49.1931 35.9967 49.1931 35.45V32.42C49.1931 31.8733 49.2665 31.4067 49.4131 31.02C49.5598 30.6267 49.8031 30.3267 50.1431 30.12C50.4831 29.9133 50.9398 29.81 51.5131 29.81C52.0998 29.81 52.5598 29.9133 52.8931 30.12C53.2331 30.3267 53.4765 30.6267 53.6231 31.02C53.7765 31.4067 53.8531 31.8733 53.8531 32.42V35.46C53.8531 36 53.7765 36.47 53.6231 36.87C53.4765 37.2633 53.2331 37.57 52.8931 37.79C52.5598 38.0033 52.0998 38.11 51.5131 38.11ZM51.5131 37.02C51.7598 37.02 51.9398 36.9667 52.0531 36.86C52.1731 36.7533 52.2531 36.6067 52.2931 36.42C52.3331 36.2333 52.3531 36.03 52.3531 35.81V32.08C52.3531 31.8533 52.3331 31.65 52.2931 31.47C52.2531 31.29 52.1731 31.15 52.0531 31.05C51.9398 30.9433 51.7598 30.89 51.5131 30.89C51.2798 30.89 51.1031 30.9433 50.9831 31.05C50.8631 31.15 50.7831 31.29 50.7431 31.47C50.7031 31.65 50.6831 31.8533 50.6831 32.08V35.81C50.6831 36.03 50.6998 36.2333 50.7331 36.42C50.7731 36.6067 50.8531 36.7533 50.9731 36.86C51.0931 36.9667 51.2731 37.02 51.5131 37.02ZM56.9479 38V29.9H57.9779L59.9479 34.52V29.9H61.1679V38H60.1879L58.2079 33.16V38H56.9479Z" fill="white"/>
<path d="M89.5 38V33.5H92.5V1.5H10.5V4.5H6.5" stroke="white" stroke-width="3"/>
</svg>
