<svg width="28" height="28" viewBox="0 0 28 28" fill="none" xmlns="http://www.w3.org/2000/svg">
<path fill-rule="evenodd" clip-rule="evenodd" d="M14 27.75C6.40608 27.75 0.25 21.5939 0.25 14C0.25 6.40609 6.40608 0.25 14 0.25C21.5939 0.25 27.75 6.40609 27.75 14C27.75 21.5939 21.5939 27.75 14 27.75ZM23.2494 20.4058C24.5108 18.5879 25.25 16.3803 25.25 14C25.25 7.7868 20.2132 2.75 14 2.75C7.7868 2.75 2.75 7.7868 2.75 14C2.75 16.3803 3.48923 18.5879 4.75063 20.4058C6.15744 18.5476 9.46325 17.75 14 17.75C18.5367 17.75 21.8426 18.5476 23.2494 20.4058ZM21.4559 22.4247C21.09 21.1092 18.4617 20.25 14 20.25C9.53828 20.25 6.91 21.1092 6.54415 22.4247C8.52913 24.1827 11.1399 25.25 14 25.25C16.8601 25.25 19.4709 24.1827 21.4559 22.4247ZM14 6.5C10.9739 6.5 9 8.6947 9 11.5C9 15.7842 11.2011 17.75 14 17.75C16.7726 17.75 19 15.8495 19 11.75C19 8.90197 17.0177 6.5 14 6.5ZM11.5 11.5C11.5 14.3366 12.5228 15.25 14 15.25C15.4721 15.25 16.5 14.373 16.5 11.75C16.5 10.188 15.5196 9 14 9C12.4172 9 11.5 10.0198 11.5 11.5Z" fill="white"/>
</svg>
