<svg width="28" height="28" viewBox="0 0 28 28" fill="none" xmlns="http://www.w3.org/2000/svg">
<path fill-rule="evenodd" clip-rule="evenodd" d="M0.25 14C0.25 21.5939 6.40608 27.75 14 27.75C21.5939 27.75 27.75 21.5939 27.75 14C27.75 6.40609 21.5939 0.25 14 0.25C6.40608 0.25 0.25 6.40609 0.25 14ZM25.25 14C25.25 20.2132 20.2132 25.25 14 25.25C7.7868 25.25 2.75 20.2132 2.75 14C2.75 7.7868 7.7868 2.75 14 2.75C20.2132 2.75 25.25 7.7868 25.25 14ZM14.0004 20.2479C14.691 20.2479 15.2508 19.6883 15.2508 18.9979C15.2508 18.3076 14.691 17.7479 14.0004 17.7479C13.3098 17.7479 12.75 18.3076 12.75 18.9979C12.75 19.6883 13.3098 20.2479 14.0004 20.2479ZM12.75 16.5H15.25C15.25 15.5021 15.4068 15.3192 16.434 14.8055C18.2193 13.9129 19 13.0021 19 10.875C19 8.15079 16.8554 6.5 14 6.5C11.2386 6.5 9 8.73858 9 11.5H11.5C11.5 10.1193 12.6193 9 14 9C15.5965 9 16.5 9.69551 16.5 10.875C16.5 11.8729 16.3432 12.0558 15.316 12.5695C13.5307 13.4621 12.75 14.3729 12.75 16.5Z" fill="white"/>
</svg>
